<svg width="526" height="458" viewBox="0 0 526 458" fill="none" xmlns="http://www.w3.org/2000/svg">
<path d="M187.284 121.295C145.079 193.37 104.633 265.445 62.4278 337.519C60.6693 335.762 58.9108 334.004 58.9108 332.246C39.567 300.603 21.9816 268.96 2.6378 235.56C-0.879265 230.286 -0.879265 225.012 2.6378 219.739C20.2231 189.854 37.8084 159.969 53.6352 130.085C57.1522 123.053 62.4278 121.295 71.2205 121.295C106.391 121.295 141.562 121.295 176.732 121.295C180.249 121.295 182.008 121.295 187.284 121.295Z" fill="#F4FAFF"/>
<path d="M463.373 119.537C465.132 123.053 466.89 124.811 468.649 126.569C486.234 158.211 503.819 188.096 523.163 219.739C526.68 226.77 526.68 232.044 523.163 237.318C505.578 267.203 487.993 297.087 472.166 326.972C468.649 332.246 465.132 335.762 459.856 335.762C422.927 335.762 384.239 335.762 347.31 335.762C345.552 335.762 345.552 335.762 342.035 335.762C378.964 263.687 421.169 191.612 463.373 119.537Z" fill="#F4FAFF"/>
<path d="M208.385 348.069C291.036 348.069 373.687 348.069 456.338 348.069C451.062 358.617 445.786 367.407 438.752 377.954C424.684 400.807 410.616 425.418 398.306 448.271C394.789 453.545 391.272 455.303 385.996 455.303C350.826 455.303 313.897 455.303 278.726 455.303C273.45 455.303 268.175 453.545 266.416 448.271C248.831 416.628 229.487 384.986 211.902 353.343C210.143 353.343 210.143 351.585 208.385 348.069Z" fill="#F4FAFF"/>
<path d="M268.176 0C271.693 0 273.452 0 276.969 0C312.14 0 347.31 0 382.481 0C389.515 0 394.791 3.51585 398.308 8.78962C415.893 38.6743 431.72 68.559 449.305 98.4437C452.822 103.717 452.822 108.991 449.305 114.265C429.961 147.666 410.617 181.066 393.032 212.709C393.032 212.709 393.032 212.709 391.273 214.467C350.827 144.15 310.381 72.0749 268.176 0Z" fill="#F4FAFF"/>
<path d="M69.4619 107.233C71.2204 103.717 71.2204 101.96 72.979 100.202C90.5643 70.3169 108.15 38.6743 125.735 8.78962C129.252 1.75792 134.528 0 141.562 0C174.974 0 210.144 0 243.556 0C250.591 0 255.866 1.75792 259.383 8.78962C278.727 42.1902 298.071 73.8328 317.415 108.991C234.764 107.233 152.113 107.233 69.4619 107.233Z" fill="#F4FAFF"/>
<path d="M255.866 457.058C250.59 457.058 247.073 457.058 241.798 457.058C206.627 457.058 173.215 457.058 138.044 457.058C132.769 457.058 127.493 455.3 125.735 450.026C108.149 420.141 90.5639 390.257 72.9786 358.614C69.4616 353.34 69.4616 348.066 72.9786 341.035C90.5639 309.392 108.149 277.749 127.493 246.107C129.252 244.349 129.252 242.591 131.01 239.075C173.215 312.908 213.661 383.225 255.866 457.058Z" fill="#F4FAFF"/>
</svg>
